<svg width="40" height="40" viewBox="0 0 40 40" fill="none" xmlns="http://www.w3.org/2000/svg">
<path fill-rule="evenodd" clip-rule="evenodd" d="M20 4C11.1634 4 4 11.1634 4 20C4 28.8366 11.1634 36 20 36C28.8366 36 36 28.8366 36 20C36 11.1634 28.8366 4 20 4ZM14.707 14.7071C15.0975 14.3166 15.7306 14.3166 16.1212 14.7071L20.3631 18.9491L24.6052 14.707C24.9958 14.3164 25.6289 14.3164 26.0195 14.707C26.41 15.0975 26.41 15.7306 26.0195 16.1212L21.7773 20.3633L26.0207 24.6066C26.4112 24.9971 26.4112 25.6303 26.0207 26.0208C25.6301 26.4113 24.997 26.4113 24.6065 26.0208L20.3631 21.7775L16.12 26.0207C15.7294 26.4112 15.0963 26.4112 14.7057 26.0207C14.3152 25.6301 14.3152 24.997 14.7057 24.6065L18.9489 20.3633L14.707 16.1213C14.3164 15.7308 14.3164 15.0976 14.707 14.7071Z" fill="#FF4D00"/>
</svg>
