<svg width="40" height="40" viewBox="0 0 40 40" fill="none" xmlns="http://www.w3.org/2000/svg">
<path d="M20 4C11.1634 4 4 11.1634 4 20C4 28.8366 11.1634 36 20 36C28.8366 36 36 28.8366 36 20C36 11.1634 28.8366 4 20 4ZM28.4787 16.0767L18.9917 25.5634C18.5388 26.0163 17.8044 26.0163 17.3515 25.5634L11.5213 19.7332C11.0684 19.2803 11.0684 18.546 11.5213 18.0931C11.9742 17.6402 12.7086 17.6402 13.1615 18.0931L18.1718 23.1033L26.8385 14.4366C27.2914 13.9837 28.0258 13.9837 28.4787 14.4366C28.9316 14.8895 28.9316 15.6238 28.4787 16.0767Z" fill="#4DC861"/>
</svg>
