<svg width="40" height="40" viewBox="0 0 40 40" fill="none" xmlns="http://www.w3.org/2000/svg">
<path fill-rule="evenodd" clip-rule="evenodd" d="M20 4C11.1634 4 4 11.1634 4 20C4 28.8366 11.1634 36 20 36C28.8366 36 36 28.8366 36 20C36 11.1634 28.8366 4 20 4ZM20 12C20.5523 12 21 12.4477 21 13V22C21 22.5523 20.5523 23 20 23C19.4477 23 19 22.5523 19 22V13C19 12.4477 19.4477 12 20 12ZM21 26C21 25.4477 20.5523 25 20 25C19.4477 25 19 25.4477 19 26C19 26.5523 19.4477 27 20 27C20.5523 27 21 26.5523 21 26Z" fill="#FF8943"/>
</svg>
